<?xml version="1.0" encoding="UTF-8"?>
<svg width="23px" height="23px" viewBox="0 0 23 23" version="1.1" xmlns="http://www.w3.org/2000/svg" xmlns:xlink="http://www.w3.org/1999/xlink">
    <title>logo circle github 2</title>
    <desc>Created with Sketch.</desc>
    <defs></defs>
    <g id="Page-1" stroke="none" stroke-width="1" fill="none" fill-rule="evenodd">
        <path d="M11.499,0.56645946 C5.149,0.56645946 0,5.71445946 0,12.0664595 C0,17.1484595 3.294,21.4584595 7.865,22.9804595 C8.439,23.0834595 8.621,22.7444595 8.621,22.4394595 C8.621,22.1654595 8.627,21.4024595 8.621,20.4424595 C5.423,21.1364595 4.76,18.9274595 4.76,18.9274595 C4.237,17.5984595 3.485,17.2454595 3.485,17.2454595 C2.44,16.5314595 3.562,16.5464595 3.562,16.5464595 C4.715,16.6264595 5.324,17.7304595 5.324,17.7304595 C6.35,19.4884595 8.015,18.9804595 8.67,18.6864595 C8.776,17.9444595 9.072,17.4354595 9.401,17.1504595 C6.847,16.8584595 4.163,15.8734595 4.163,11.4644595 C4.163,10.2094595 4.611,9.18345946 5.347,8.37845946 C5.229,8.08945946 4.833,6.91845946 5.459,5.33545946 C5.459,5.33545946 6.426,5.02645946 8.621,6.51545946 C9.539,6.25945946 10.523,6.13245946 11.501,6.12745946 C12.477,6.13245946 13.461,6.25945946 14.381,6.51545946 C16.576,5.02745946 17.54,5.33545946 17.54,5.33545946 C18.167,6.91845946 17.772,8.08945946 17.654,8.37845946 C18.39,9.18345946 18.837,10.2094595 18.837,11.4644595 C18.837,15.8844595 16.148,16.8554595 13.586,17.1384595 C13.998,17.4954595 14.373,18.1854595 14.373,19.2584595 L14.373,22.4424595 C14.373,22.7504595 14.559,23.0894595 15.143,22.9784595 C19.709,21.4554595 23,17.1464595 23,12.0664595 C23,5.71445946 17.852,0.56645946 11.499,0.56645946" id="logo-circle-github-2" fill="#FFF"></path>
    </g>
</svg>
